<svg width="238.09" height="81.921" viewBox="0 0 62.998 21.675" xmlns="http://www.w3.org/2000/svg"><g class="dog"><path d="M13.034 9.896c-.018-.069-.063-.274-.044-.329.02-.054.066-.164.1-.256.174-.469.094-.96.038-1.072-.011-.022-.035-.025-.05-.027-.248-.035-.452.112-.698.387-.1.11-.21.193-.238.043-.019-.1.065-.304-.035-.294-.233.022-.384.145-.516.305-.1.124-.108.189-.226.192-.235.01-.345.019-.526.059a1.61 1.61 0 0 0-.445.165c-.136.078-.238.197-.559.199-.513.004-1.165.015-1.418.06-.26.045-.296.198-.158.411.161.25.21.786.536.862.087.17.146.3.23.293.03-.006.059-.088.08-.165.045-.167.22-.174.336-.18.292-.013.519.002.716.105.135.07.201.195.176.244-.046.087-.143-.032-.644.062-.283.053-.457.193-.822.193-.543 0-.81-.34-.905-.644-.049-.153-.084-.295-.278-.127a.6.6 0 0 0-.01.877c.171.166.41.252.7.277.087.006.264.01.408.004 0 0-.041.104.021.197.062.092.248.164.545.082.424-.117.789-.226 1.081-.024.053.036.119.104.119.148 0 .08-.319.31-1.212.533-1.098.273-1.355.953-1.244 1.325.01.034.034.067.062.068.03.002.198-.09.294-.105.187-.031.108.094.085.252-.085.564.781 1.275 1.546 1.765.424.271.652.364.759.364.11 0 .335-.075.758-.364 1.193-.815 1.983-1.957 1.855-2.565-.073-.345-.267-.555-.174-.61.107-.064.338.101.389.072.12-.069.174-.707-.047-1.375-.21-.635-.445-.888-.585-1.407zm-2.242-.212c-.1.014-.226-.036-.198-.07.012-.014.044-.053.02-.099-.033-.063-.138-.064-.206-.024.054-.114.23-.19.38-.19.21 0 .259.11.246.196-.015.101-.111.17-.242.187z"/><g class="light-blue"><path d="M.932 9.55c.187-1.278.966-2.228 1.832-2.683 1.38-.725 2.748-.45 3.707-.25.142.03.257.01.302-.07.036-.066.01-.14-.102-.25a50.486 50.486 0 0 0-1.618-1.494c-.316-.243-.838-.388-1.246-.388C1.475 4.415 0 6.055 0 7.881c0 .478.145 1.096.303 1.443.148.322.311.608.44.608.15 0 .162-.195.19-.382zM14.335 6.03c-.065-.046-.08-.138-.065-.276.098-.916-.002-1.818-.2-2.241-.255-.545-.865-1.34-1.341-1.8-.619-.6-.841-.765-1.126-.964-.071-.05-.225-.131-.225-.198 0-.073.118-.15.262-.211.267-.115.659-.27 1.375-.328.851-.067 2.064.102 2.98 1.185.517.611.59 1.35.59 1.85 0 .596-.103 1.132-.41 1.441a44.085 44.085 0 0 1-1.551 1.457c-.062.052-.203.144-.289.084zM17.686 16.247c2.337.136 3.99-1.685 3.99-3.47 0-.679-.107-1.036-.302-1.414-.166-.321-.357-.54-.471-.54-.112.001-.146.153-.164.242-.453 2.188-2.122 3.458-3.258 3.475-.333.005-.739-.065-.775-.215-.051-.214.347-.672.347-1.53 0-.348-.165-.978-1.205-1.015-.917-.034-1.362.76-1.362 1.461 0 1.457 1.16 2.886 3.2 3.006z"/></g><g class="dark-blue"><path d="M3.99 16.247C1.653 16.383 0 14.562 0 12.777c0-.679.107-1.036.302-1.414.166-.321.357-.54.471-.54.113.001.146.153.165.242.452 2.188 2.121 3.458 3.257 3.475.334.005.739-.065.775-.215.052-.214-.347-.672-.347-1.53 0-.348.165-.978 1.206-1.015.916-.034 1.361.76 1.361 1.461 0 1.457-1.159 2.886-3.2 3.006zM7.34 6.03c.066-.046.08-.138.066-.276-.1-.916.001-1.818.2-2.241.254-.545.864-1.34 1.34-1.8.62-.6.842-.765 1.126-.964.072-.05.226-.131.226-.198 0-.073-.119-.15-.262-.211C9.768.225 9.376.07 8.66.012c-.85-.067-2.064.102-2.98 1.185-.517.611-.59 1.35-.59 1.85 0 .596.104 1.132.41 1.441A44.085 44.085 0 0 0 7.05 5.945c.062.052.204.144.29.084zM20.743 9.55c-.186-1.278-.966-2.228-1.832-2.683-1.38-.725-2.747-.45-3.706-.25-.142.03-.258.01-.302-.07-.036-.066-.01-.14.102-.25a50.37 50.37 0 0 1 1.618-1.494c.315-.243.837-.388 1.245-.388 2.332 0 3.807 1.64 3.807 3.466 0 .478-.144 1.096-.303 1.443-.147.322-.31.608-.44.608-.15 0-.161-.195-.189-.382z"/></g><g class="light-yellow"><path d="M4.732 6.894c1.037 0 2.34.33 2.792.654.144.102.19.25-.013.44l-1.013.936c-.191.177-.266.28-.266.646v1.437c0 .173-.075.248-.352.278-.071.007-.218.015-.327.025-.376.032-.864.16-1.206.656-.442.64-.171 1.47-.05 1.792.087.233.072.373-.307.303-1.052-.195-2.674-1.982-2.58-3.965.099-2.056 1.564-3.202 3.322-3.202zM16.943 6.894c-1.036 0-2.34.33-2.792.654-.143.102-.19.25.013.44l1.013.936c.191.177.267.28.267.646v1.437c0 .173.075.248.352.278.07.007.217.015.326.025.376.032.864.16 1.206.656.442.64.171 1.47.051 1.792-.087.233-.072.373.306.303 1.053-.195 2.675-1.982 2.58-3.965-.099-2.056-1.564-3.202-3.322-3.202zM12.66 16.915c.523-.366.807-.611 1.244-1.026.202-.19.434-.211.677.005.337.301.752.548 1.36.594.243.018.373-.054.544.024.088.04.171.148.177.334.025.742-.359 1.6-1.52 1.792-.753.125-1.51-.086-1.883-.41-.256-.222-.538-.469-.702-.673-.171-.214-.163-.456.102-.64zM9.016 16.915a9.355 9.355 0 0 1-1.245-1.026c-.202-.19-.434-.211-.676.005-.338.301-.753.548-1.36.594-.243.018-.373-.054-.545.024-.087.04-.17.148-.177.334-.024.742.36 1.6 1.52 1.792.753.125 1.51-.086 1.883-.41.256-.222.538-.469.702-.673.172-.214.164-.456-.102-.64z"/></g><g class="dark-yellow"><path d="M8.007 3.971c.1-.46.727-1.334 1.337-1.927.622-.603 1.164-1.072 1.494-1.072.33 0 .872.469 1.494 1.072.61.593 1.236 1.466 1.336 1.927.1.462.235 1.426-.126 2.821-.102.395-.338.433-.605.433H8.739c-.267 0-.503-.038-.606-.433-.36-1.395-.226-2.36-.126-2.82zM10.838 17.766c.299 0 .533-.169.736-.193.171-.02.281.028.438.174.228.21.555.54.773.787.157.178.37.475.077 1.168-.359.851-1.647 1.973-2.024 1.973s-1.666-1.122-2.025-1.973c-.292-.693-.08-.99.077-1.168.218-.247.545-.576.773-.787.157-.146.267-.195.438-.174.203.024.437.193.737.193z"/></g></g><g class="text" stroke-width=".34" aria-label="SKAUT"><path d="M30.366 4.461c.122.022.188.011.21-.122l.177-1.182c.01-.088-.033-.166-.133-.188-.387-.1-.95-.143-1.304-.143-2.11 0-3.182.74-3.182 2.243 0 2.376 3.237 2.11 3.237 3.392 0 .564-.64.796-1.458.796-.52 0-1.028-.11-1.602-.387-.155-.077-.233-.022-.266.089-.033.132-.033.232-.033.364 0 .685.398 1.459 1.967 1.459 1.79 0 3.183-.774 3.183-2.387 0-2.431-3.238-2.066-3.238-3.337 0-.266.177-.708 1.293-.708.31 0 .762.034 1.149.111zM31.99 2.936c-.133 0-.222.055-.21.188.066.818.331 1.182.917 1.27v6.112a.17.17 0 0 0 .165.165h1.404a.17.17 0 0 0 .166-.165V6.782l2.143 3.05c.464.663.907 1.005 1.735 1.005.42 0 .73-.177.895-.31.067-.055.1-.132 0-.22-.519-.487-1.845-2.365-2.84-3.647-.033-.044-.033-.088 0-.132l2.487-3.282c.121-.166.022-.31-.177-.31h-1.36c-.21 0-.364.077-.463.221l-2.42 3.271v-2.64a.883.883 0 0 0-.907-.907c-.541 0-.994.055-1.535.055zM41.592 2.936c-.133 0-.221.055-.21.188.066.818.332 1.182.917 1.27l-2.133 6.023c-.044.133.045.254.177.254h1.47c.133 0 .188-.066.221-.154l.453-1.337c.033-.1.077-.144.177-.144h2.906c.11 0 .166.033.2.144l.242.729c.221.652.674.928 1.437.928.453 0 .729-.121.873-.232.044-.033.044-.1.01-.144-.11-.154-.275-.408-.485-.983l-1.99-5.58c-.232-.642-.497-1.017-1.602-1.017-.917 0-1.746.055-2.663.055zM45.194 7.5h-2.077c-.089 0-.122-.044-.1-.122l.973-3.039h.143c.144 0 .221.078.277.255l.873 2.773c.022.089 0 .133-.089.133zM49.415 4.395V8.03c0 1.846 1.094 2.74 3.204 2.74 2.023 0 3.205-.983 3.205-2.74V3.102a.17.17 0 0 0-.166-.166h-1.403a.17.17 0 0 0-.166.166v4.563c0 1.04-.53 1.58-1.47 1.58s-1.47-.54-1.47-1.58V3.798c0-.62-.375-.917-.916-.917-.442 0-.94.044-1.525.055-.133 0-.221.055-.21.188.066.817.331 1.182.917 1.27zM61.064 4.472h1.768a.17.17 0 0 0 .165-.166V3.102a.17.17 0 0 0-.165-.166H57.34a.17.17 0 0 0-.166.166v1.204a.17.17 0 0 0 .166.166h1.768c.066 0 .11.044.11.11v4.189c0 1.447.431 2.01 1.503 2.01.906 0 1.425-.63 1.514-1.17.033-.2-.022-.299-.188-.277a2.072 2.072 0 0 1-.453-.01c-.464-.067-.641-.266-.641-1.084V4.583c0-.067.044-.111.11-.111z"/></g><g stroke-width=".197" aria-label="Kralupy" class="text"><path d="m29.93 18.133-2.005-2.717 1.912-2.509h-1.223l-1.688 2.37v-2.37H25.92v5.226h1.006v-2.508l1.68 2.508zM32.703 14.208c-.69-.062-1.061.364-1.247.852h-.015c.046-.271.07-.581.07-.782a10.914 10.914 0 0 0-1.603.07v.619c.224.015.487.046.673.077v3.09h.983v-1.572c0-1.069.357-1.534 1.092-1.379zM36.854 17.452a7.73 7.73 0 0 1-.674-.077v-1.82c0-.86-.364-1.355-1.564-1.355-.472 0-1.007.116-1.44.263l.155.751c.371-.147.82-.255 1.169-.255.51 0 .689.209.689.65v.163c-1.347 0-2.222.426-2.222 1.34 0 .627.402 1.099 1.1 1.099.572 0 1.044-.302 1.23-.736l.008.008a4.491 4.491 0 0 0-.039.658c.504.016 1.1-.008 1.588-.07zm-1.665-.914c0 .45-.325.914-.805.914-.287 0-.465-.201-.465-.449 0-.333.271-.58 1.27-.58zM38.486 18.133v-5.66c-.573-.015-1.17.008-1.665.07v.62c.225.015.488.046.674.077v4.893zM43.805 17.452a7.73 7.73 0 0 1-.674-.077v-3.09h-.983v1.859c0 .673-.395 1.238-.898 1.238-.364 0-.472-.24-.472-.634v-2.47a11.717 11.717 0 0 0-1.657.07v.619c.224.015.48.046.666.077v1.944c0 .673.278 1.223 1.153 1.223.627 0 1.077-.318 1.301-.767h.016a4.57 4.57 0 0 0-.047.697c.503.016 1.107-.008 1.595-.07zM45.663 20v-1.843c.162.023.31.03.495.03 1.332 0 2.029-.843 2.029-2.183 0-1.138-.496-1.796-1.41-1.796-.58 0-.99.27-1.207.72h-.016c.031-.201.039-.457.039-.65a10.75 10.75 0 0 0-1.587.07v.619c.224.015.488.046.673.077V20zm0-3.717c0-.658.31-1.262.828-1.262.45 0 .658.371.658 1.092 0 .952-.402 1.308-.968 1.308-.2 0-.363-.023-.518-.07zM52.276 14.285h-1.06l-.45 1.386c-.147.457-.263.883-.348 1.231h-.008a17.346 17.346 0 0 0-.317-1.107l-.52-1.51H48.46l1.417 3.849-.124.34c-.21.573-.48.759-.867.759-.24 0-.465-.062-.465-.062l-.1.844s.263.047.503.047c.89 0 1.517-.403 1.99-1.712z"/></g></svg>