<?xml version="1.0" encoding="UTF-8" standalone="no"?>
<svg
   xmlns:dc="http://purl.org/dc/elements/1.1/"
   xmlns:cc="http://creativecommons.org/ns#"
   xmlns:rdf="http://www.w3.org/1999/02/22-rdf-syntax-ns#"
   xmlns:svg="http://www.w3.org/2000/svg"
   xmlns="http://www.w3.org/2000/svg"
   viewBox="0 0 449.33334 186.66667"
   height="186.66667"
   width="449.33334"
   xml:space="preserve"
   id="svg2"
   version="1.1"><metadata
     id="metadata8"><rdf:RDF><cc:Work
         rdf:about=""><dc:format>image/svg+xml</dc:format><dc:type
           rdf:resource="http://purl.org/dc/dcmitype/StillImage" /></cc:Work></rdf:RDF></metadata><defs
     id="defs6"><clipPath
       id="clipPath20"
       clipPathUnits="userSpaceOnUse"><path
         id="path18"
         d="M 0,0 H 337 V 140 H 0 Z" /></clipPath></defs><g
     transform="matrix(1.3333333,0,0,-1.3333333,0,186.66667)"
     id="g10"><g
       id="g12"><g
         id="g14"><g
           clip-path="url(#clipPath20)"
           id="g16"><g
             transform="translate(162.7484,8.5)"
             id="g22"><path
               id="path24"
               style="fill:#ffffff;fill-opacity:1;fill-rule:nonzero;stroke:none"
               d="m 0,0 c -83.078,0 -111.172,1.848 -126.351,13.921 -17.275,13.742 -22.825,55.384 -17.336,75.94 2.877,10.778 10.478,18.443 19.959,21.38 9.48,2.937 56.45,9.455 123.811,9.455 67.36,0 134.983,-8.413 145.097,-14.208 9.036,-5.177 12.511,-16.703 12.129,-35.303 C 156.863,49.472 151.604,23.123 138.71,14.819 120.106,2.838 65.114,0 0,0" /></g><g
             transform="translate(84.9085,72.8217)"
             id="g26"><path
               id="path28"
               style="fill:#304488;fill-opacity:1;fill-rule:nonzero;stroke:none"
               d="m 0,0 c 0.168,0.38 0.71,0.635 1.17,0.635 0.651,0 0.801,-0.37 0.761,-0.654 C 1.885,-0.358 1.589,-0.585 1.186,-0.645 1.15,-0.651 1.112,-0.653 1.074,-0.653 c -0.284,0 -0.575,0.141 -0.499,0.241 0.037,0.049 0.134,0.177 0.06,0.331 C 0.578,0.037 0.451,0.09 0.313,0.09 0.205,0.09 0.092,0.058 0,0 M 8.018,4.284 C 7.349,4.284 6.771,3.803 6.083,2.976 5.896,2.753 5.696,2.561 5.548,2.561 c -0.093,0 -0.165,0.078 -0.199,0.272 -0.056,0.324 0.19,0.981 -0.088,0.981 -0.006,0 -0.013,0 -0.02,-10e-4 C 4.524,3.738 4.058,3.327 3.652,2.794 3.339,2.382 3.316,2.166 2.952,2.155 2.227,2.122 1.889,2.092 1.33,1.958 0.769,1.826 0.295,1.616 -0.041,1.409 -0.462,1.146 -0.778,0.752 -1.767,0.744 -3.35,0.73 -5.36,0.694 -6.14,0.545 -6.942,0.393 -7.055,-0.116 -6.63,-0.828 c 0.499,-0.832 0.647,-2.621 1.655,-2.876 0.26,-0.553 0.439,-0.978 0.688,-0.978 0.007,0 0.014,0.001 0.022,0.001 0.089,0.019 0.18,0.295 0.246,0.55 0.139,0.558 0.68,0.582 1.037,0.6 0.178,0.01 0.348,0.015 0.511,0.015 0.663,0 1.209,-0.088 1.697,-0.362 0.417,-0.235 0.621,-0.653 0.542,-0.815 -0.043,-0.089 -0.102,-0.113 -0.207,-0.113 -0.063,0 -0.142,0.009 -0.245,0.017 -0.103,0.009 -0.23,0.018 -0.387,0.018 -0.276,0 -0.646,-0.027 -1.147,-0.129 -0.873,-0.176 -1.409,-0.645 -2.534,-0.645 -1.678,0 -2.5,1.136 -2.795,2.151 -0.101,0.346 -0.183,0.675 -0.414,0.675 -0.108,0 -0.25,-0.073 -0.442,-0.252 -0.769,-0.72 -0.826,-2.089 -0.03,-2.925 0.527,-0.555 1.266,-0.843 2.156,-0.925 0.177,-0.014 0.469,-0.025 0.774,-0.025 0.164,0 0.332,0.003 0.488,0.011 0,0 -0.127,-0.348 0.064,-0.656 0.133,-0.213 0.45,-0.393 0.936,-0.393 0.216,0 0.464,0.035 0.745,0.119 0.78,0.232 1.495,0.455 2.136,0.455 0.435,0 0.836,-0.103 1.2,-0.375 0.164,-0.122 0.366,-0.348 0.366,-0.494 0,-0.268 -0.982,-1.035 -3.737,-1.776 -3.387,-0.912 -4.182,-3.18 -3.838,-4.42 l 0.189,-0.229 h 0.003 c 0.1,0 0.612,0.3 0.906,0.353 0.06,0.01 0.111,0.015 0.154,0.015 0.375,0 0.172,-0.385 0.107,-0.858 -0.262,-1.881 2.411,-4.252 4.771,-5.887 1.307,-0.904 2.01,-1.213 2.34,-1.213 0.337,0 1.036,0.25 2.339,1.213 3.68,2.72 6.119,6.527 5.724,8.555 -0.225,1.151 -0.824,1.852 -0.538,2.037 0.055,0.035 0.119,0.049 0.19,0.049 0.162,0 0.357,-0.075 0.533,-0.151 0.177,-0.076 0.336,-0.151 0.426,-0.151 0.02,0 0.037,0.003 0.05,0.011 0.369,0.23 0.538,2.36 -0.143,4.588 -0.647,2.116 -1.373,2.961 -1.806,4.693 -0.057,0.227 -0.194,0.913 -0.135,1.095 0.058,0.183 0.201,0.549 0.305,0.853 0.54,1.566 0.292,3.207 0.119,3.579 L 8.235,4.267 C 8.162,4.278 8.089,4.284 8.018,4.284" /></g><g
             transform="translate(55.1839,68.3748)"
             id="g30"><path
               id="path32"
               style="fill:#375aa7;fill-opacity:1;fill-rule:nonzero;stroke:none"
               d="m 0,0 c -0.352,0 -0.941,-0.727 -1.453,-1.799 -0.601,-1.259 -0.93,-2.451 -0.93,-4.716 0,-5.744 4.744,-11.597 11.55,-11.597 0.25,0 0.504,0.008 0.76,0.024 6.295,0.398 9.871,5.165 9.871,10.024 0,2.293 -1.317,4.88 -4.029,4.88 -0.057,0 -0.114,-0.002 -0.172,-0.004 -3.209,-0.126 -3.719,-2.227 -3.719,-3.387 0,-2.862 1.23,-4.388 1.07,-5.103 -0.108,-0.483 -1.279,-0.72 -2.285,-0.72 -0.035,0 -0.07,10e-4 -0.104,10e-4 C 7.054,-12.34 1.905,-8.103 0.508,-0.805 0.452,-0.507 0.348,-0.001 0.001,0 v 0" /></g><g
             transform="translate(64.5454,89.752)"
             id="g34"><path
               id="path36"
               style="fill:#4575be;fill-opacity:1;fill-rule:nonzero;stroke:none"
               d="m 0,0 c -7.194,0 -11.745,-5.471 -11.745,-11.561 0,-1.594 0.445,-3.654 0.935,-4.812 0.455,-1.074 0.958,-2.029 1.358,-2.029 0.461,0 0.498,0.65 0.582,1.275 0.576,4.263 2.981,7.431 5.652,8.949 2.101,1.193 4.193,1.575 6.128,1.575 1.986,0 3.808,-0.402 5.306,-0.74 0.129,-0.029 0.252,-0.045 0.363,-0.045 0.267,0 0.473,0.087 0.569,0.276 0.112,0.22 0.033,0.47 -0.314,0.835 C 7.443,-4.812 4.243,-1.629 3.842,-1.294 2.868,-0.482 1.259,0 0,0" /></g><g
             transform="translate(93.955,104.485)"
             id="g38"><path
               id="path40"
               style="fill:#4575be;fill-opacity:1;fill-rule:nonzero;stroke:none"
               d="m 0,0 c -0.348,0 -0.685,-0.016 -1.004,-0.043 -2.208,-0.19 -3.417,-0.711 -4.242,-1.094 -0.442,-0.205 -0.808,-0.459 -0.808,-0.705 0,-0.222 0.475,-0.49 0.695,-0.657 0.878,-0.667 1.564,-1.217 3.473,-3.215 1.47,-1.54 3.351,-4.19 4.137,-6.006 0.611,-1.411 0.921,-4.419 0.616,-7.477 -0.045,-0.461 0,-0.764 0.202,-0.918 0.061,-0.046 0.131,-0.065 0.205,-0.065 0.247,0 0.539,0.213 0.686,0.346 0.394,0.354 3.389,3.334 4.787,4.862 0.945,1.03 1.262,2.817 1.262,4.803 0,1.669 -0.223,4.135 -1.818,6.173 C 5.709,-0.823 2.519,0 0,0" /></g><g
             transform="translate(78.5149,104.485)"
             id="g42"><path
               id="path44"
               style="fill:#375aa7;fill-opacity:1;fill-rule:nonzero;stroke:none"
               d="m 0,0 c -2.519,0 -5.709,-0.823 -8.191,-3.996 -1.595,-2.038 -1.818,-4.504 -1.818,-6.173 0,-1.986 0.317,-3.773 1.262,-4.803 1.398,-1.528 4.393,-4.508 4.787,-4.862 0.147,-0.133 0.439,-0.346 0.686,-0.346 0.074,0 0.144,0.019 0.205,0.065 0.202,0.154 0.247,0.457 0.202,0.918 -0.305,3.058 0.005,6.066 0.616,7.477 0.786,1.816 2.667,4.466 4.137,6.006 1.908,1.998 2.595,2.548 3.473,3.215 0.22,0.167 0.695,0.435 0.695,0.657 0,0.246 -0.366,0.5 -0.808,0.705 C 4.421,-0.754 3.212,-0.233 1.004,-0.043 0.684,-0.016 0.348,0 0,0" /></g><g
             transform="translate(67.3986,81.4849)"
             id="g46"><path
               id="path48"
               style="fill:#f9a70d;fill-opacity:1;fill-rule:nonzero;stroke:none"
               d="m 0,0 c -5.423,0 -9.943,-3.822 -10.247,-10.681 -0.293,-6.613 4.712,-12.575 7.958,-13.225 0.205,-0.041 0.376,-0.06 0.517,-0.06 0.658,0 0.65,0.428 0.428,1.07 -0.371,1.073 -1.208,3.841 0.156,5.978 1.056,1.655 2.561,2.081 3.72,2.189 0.338,0.031 0.79,0.057 1.008,0.083 0.854,0.101 1.087,0.348 1.087,0.926 v 4.794 c 0,1.218 0.231,1.565 0.821,2.154 0.66,0.66 2.302,2.303 3.125,3.125 0.629,0.629 0.483,1.124 0.04,1.466 C 7.218,-1.102 3.198,0 0,0" /></g><g
             transform="translate(117.2859,68.3748)"
             id="g50"><path
               id="path52"
               style="fill:#4575be;fill-opacity:1;fill-rule:nonzero;stroke:none"
               d="m 0,0 h -0.001 c -0.347,-0.001 -0.451,-0.507 -0.507,-0.805 -1.397,-7.298 -6.545,-11.535 -10.05,-11.592 -0.035,0 -0.07,-10e-4 -0.104,-10e-4 -1.007,0 -2.178,0.237 -2.286,0.72 -0.159,0.715 1.07,2.241 1.07,5.103 0,1.16 -0.51,3.261 -3.719,3.387 -0.058,0.002 -0.115,0.004 -0.172,0.004 -2.712,0 -4.029,-2.587 -4.029,-4.88 0,-4.859 3.577,-9.626 9.871,-10.024 0.256,-0.016 0.51,-0.024 0.76,-0.024 6.806,0 11.551,5.853 11.551,11.597 0,2.265 -0.329,3.457 -0.931,4.716 C 0.941,-0.727 0.352,0 0,0" /></g><g
             transform="translate(107.9243,89.752)"
             id="g54"><path
               id="path56"
               style="fill:#375aa7;fill-opacity:1;fill-rule:nonzero;stroke:none"
               d="m 0,0 c -1.259,0 -2.868,-0.482 -3.842,-1.294 -0.401,-0.335 -3.601,-3.518 -4.992,-4.983 -0.347,-0.365 -0.426,-0.615 -0.314,-0.835 0.097,-0.189 0.302,-0.276 0.569,-0.276 0.112,0 0.234,0.016 0.363,0.045 1.499,0.338 3.32,0.74 5.306,0.74 1.935,0 4.027,-0.382 6.129,-1.575 2.671,-1.518 5.076,-4.686 5.651,-8.949 0.084,-0.625 0.121,-1.275 0.582,-1.275 0.4,0 0.903,0.955 1.358,2.029 0.49,1.158 0.936,3.218 0.936,4.812 C 11.746,-5.471 7.194,0 0,0" /></g><g
             transform="translate(105.0714,81.4849)"
             id="g58"><path
               id="path60"
               style="fill:#f9a70d;fill-opacity:1;fill-rule:nonzero;stroke:none"
               d="m 0,0 c -3.198,0 -7.218,-1.102 -8.613,-2.181 -0.443,-0.342 -0.589,-0.837 0.04,-1.466 0.823,-0.822 2.465,-2.465 3.125,-3.125 0.589,-0.589 0.821,-0.936 0.821,-2.154 v -4.794 c 0,-0.578 0.233,-0.825 1.087,-0.926 0.218,-0.026 0.67,-0.052 1.008,-0.083 1.159,-0.108 2.664,-0.534 3.72,-2.189 1.363,-2.137 0.527,-4.905 0.156,-5.978 -0.222,-0.642 -0.23,-1.07 0.428,-1.07 0.141,0 0.312,0.019 0.517,0.06 3.246,0.65 8.251,6.612 7.958,13.225 C 9.943,-3.822 5.422,0 0,0" /></g><g
             transform="translate(96.7126,51.9818)"
             id="g62"><path
               id="path64"
               style="fill:#f9a70d;fill-opacity:1;fill-rule:nonzero;stroke:none"
               d="m 0,0 c -0.358,0 -0.699,-0.177 -1.016,-0.502 -1.351,-1.382 -2.224,-2.201 -3.842,-3.42 -0.819,-0.616 -0.843,-1.422 -0.315,-2.134 0.506,-0.683 1.377,-1.507 2.166,-2.246 0.924,-0.866 2.606,-1.49 4.434,-1.49 0.452,0 0.914,0.038 1.374,0.121 3.583,0.639 4.766,3.504 4.69,5.978 -0.018,0.621 -0.276,0.983 -0.545,1.114 -0.195,0.095 -0.373,0.123 -0.556,0.123 -0.128,0 -0.258,-0.014 -0.4,-0.027 -0.141,-0.013 -0.293,-0.026 -0.465,-0.026 -0.082,0 -0.169,0.003 -0.261,0.01 C 3.392,-2.344 2.111,-1.523 1.07,-0.518 0.703,-0.164 0.344,0 0,0" /></g><g
             transform="translate(75.7573,51.9818)"
             id="g66"><path
               id="path68"
               style="fill:#f9a70d;fill-opacity:1;fill-rule:nonzero;stroke:none"
               d="m 0,0 c -0.344,0 -0.703,-0.164 -1.07,-0.518 -1.041,-1.005 -2.322,-1.826 -4.194,-1.981 -0.092,-0.007 -0.179,-0.01 -0.261,-0.01 -0.172,0 -0.324,0.013 -0.465,0.026 -0.142,0.013 -0.272,0.027 -0.4,0.027 -0.183,0 -0.361,-0.028 -0.555,-0.123 -0.27,-0.131 -0.528,-0.493 -0.546,-1.114 -0.076,-2.474 1.107,-5.339 4.69,-5.978 0.461,-0.083 0.922,-0.121 1.374,-0.121 1.827,0 3.51,0.624 4.434,1.49 0.789,0.739 1.66,1.563 2.166,2.246 0.528,0.712 0.504,1.518 -0.315,2.134 -1.617,1.219 -2.491,2.038 -3.842,3.42 C 0.699,-0.177 0.358,0 0,0" /></g><g
             transform="translate(86.2349,101.2376)"
             id="g70"><path
               id="path72"
               style="fill:#f79210;fill-opacity:1;fill-rule:nonzero;stroke:none"
               d="m 0,0 c -1.019,0 -2.691,-1.562 -4.608,-3.576 -1.883,-1.977 -3.815,-4.888 -4.124,-6.427 -0.309,-1.539 -0.726,-4.754 0.388,-9.408 0.316,-1.318 1.045,-1.444 1.869,-1.444 H 6.474 c 0.824,0 1.554,0.126 1.869,1.444 1.114,4.654 0.697,7.869 0.388,9.408 -0.307,1.539 -2.24,4.45 -4.123,6.427 C 2.69,-1.562 1.017,0 0,0" /></g><g
             transform="translate(88.723,45.878)"
             id="g74"><path
               id="path76"
               style="fill:#f79210;fill-opacity:1;fill-rule:nonzero;stroke:none"
               d="m 0,0 c -0.069,0 -0.141,-0.005 -0.218,-0.015 -0.624,-0.081 -1.347,-0.644 -2.27,-0.644 -0.923,0 -1.646,0.563 -2.271,0.644 C -4.835,-0.005 -4.907,0 -4.976,0 c -0.412,0 -0.721,-0.18 -1.136,-0.595 -0.701,-0.703 -1.712,-1.802 -2.383,-2.626 -0.484,-0.594 -1.141,-1.585 -0.239,-3.896 1.107,-2.839 5.082,-6.581 6.246,-6.581 1.164,0 5.139,3.742 6.246,6.581 0.902,2.311 0.245,3.302 -0.239,3.896 C 2.847,-2.397 1.837,-1.298 1.135,-0.595 0.721,-0.18 0.412,0 0,0" /></g><g
             transform="translate(146.776,88.7557)"
             id="g78"><path
               id="path80"
               style="fill:#304488;fill-opacity:1;fill-rule:nonzero;stroke:none"
               d="m 0,0 c -3.619,0 -4.192,-1.433 -4.192,-2.293 0,-4.119 10.497,-2.937 10.497,-10.818 0,-5.23 -4.514,-7.738 -10.317,-7.738 -5.087,0 -6.377,2.508 -6.377,4.729 0,0.43 0,0.752 0.108,1.182 0.107,0.359 0.358,0.538 0.859,0.286 1.863,-0.895 3.511,-1.253 5.195,-1.253 2.651,0 4.729,0.752 4.729,2.579 0,4.155 -10.497,3.295 -10.497,10.998 0,4.872 3.475,7.272 10.318,7.272 C 1.469,4.944 3.296,4.8 4.55,4.478 4.871,4.406 5.015,4.156 4.979,3.869 L 4.406,0.036 C 4.334,-0.394 4.119,-0.43 3.725,-0.358 2.472,-0.107 1.003,0 0,0" /></g><g
             transform="translate(197.7279,93.5201)"
             id="g82"><path
               id="path84"
               style="fill:#304488;fill-opacity:1;fill-rule:nonzero;stroke:none"
               d="m 0,0 c 3.583,0 4.442,-1.218 5.195,-3.295 l 6.447,-18.091 c 0.681,-1.863 1.219,-2.687 1.577,-3.188 0.107,-0.144 0.107,-0.358 -0.036,-0.466 -0.466,-0.358 -1.361,-0.752 -2.83,-0.752 -2.472,0 -3.94,0.895 -4.657,3.009 l -0.788,2.364 c -0.108,0.358 -0.287,0.466 -0.645,0.466 h -9.421 c -0.323,0 -0.466,-0.144 -0.573,-0.466 l -1.47,-4.334 c -0.107,-0.287 -0.286,-0.502 -0.716,-0.502 h -4.764 c -0.43,0 -0.717,0.394 -0.573,0.824 l 6.913,19.523 c -1.898,0.287 -2.758,1.469 -2.973,4.12 -0.036,0.43 0.251,0.609 0.681,0.609 C -5.66,-0.179 -2.973,0 0,0 m 3.332,-14.544 -2.83,8.992 c -0.179,0.573 -0.43,0.823 -0.896,0.823 H -0.86 l -3.152,-9.85 c -0.072,-0.252 0.036,-0.395 0.322,-0.395 h 6.735 c 0.287,0 0.359,0.143 0.287,0.43" /></g><g
             transform="translate(212.5771,92.7323)"
             id="g86"><path
               id="path88"
               style="fill:#304488;fill-opacity:1;fill-rule:nonzero;stroke:none"
               d="m 0,0 c -0.036,0.43 0.25,0.609 0.681,0.609 1.899,0.035 3.51,0.179 4.943,0.179 1.756,0 2.974,-0.967 2.974,-2.974 v -12.538 c 0,-3.367 1.719,-5.122 4.764,-5.122 3.045,0 4.765,1.755 4.765,5.122 V 0.071 c 0,0.287 0.25,0.538 0.537,0.538 h 4.55 c 0.286,0 0.537,-0.251 0.537,-0.538 v -15.976 c 0,-5.697 -3.833,-8.885 -10.389,-8.885 -6.842,0 -10.389,2.902 -10.389,8.885 V -4.12 C 1.075,-3.833 0.215,-2.651 0,0" /></g><g
             transform="translate(253.6759,88.0036)"
             id="g90"><path
               id="path92"
               style="fill:#304488;fill-opacity:1;fill-rule:nonzero;stroke:none"
               d="m 0,0 v -11.857 c 0,-2.651 0.573,-3.296 2.078,-3.511 0.394,-0.072 1.075,-0.072 1.468,-0.036 0.538,0.072 0.717,-0.251 0.61,-0.896 -0.287,-1.754 -1.971,-3.797 -4.908,-3.797 -3.475,0 -4.872,1.827 -4.872,6.52 V 0 c 0,0.215 -0.144,0.358 -0.359,0.358 h -5.731 c -0.287,0 -0.538,0.251 -0.538,0.537 V 4.8 c 0,0.287 0.251,0.537 0.538,0.537 H 6.09 c 0.286,0 0.538,-0.25 0.538,-0.537 V 0.895 C 6.628,0.609 6.376,0.358 6.09,0.358 H 0.358 C 0.143,0.358 0,0.215 0,0" /></g><g
             transform="translate(162.9451,93.5201)"
             id="g94"><path
               id="path96"
               style="fill:#304488;fill-opacity:1;fill-rule:nonzero;stroke:none"
               d="m 0,0 c 1.684,0 2.938,-1.254 2.938,-2.937 v -8.562 l 7.845,10.604 c 0.322,0.466 0.824,0.716 1.504,0.716 h 4.407 c 0.644,0 0.967,-0.465 0.573,-1.003 L 9.206,-11.821 c -0.107,-0.144 -0.107,-0.287 0,-0.43 3.224,-4.156 7.523,-10.245 9.207,-11.822 0.322,-0.286 0.215,-0.537 0,-0.716 -0.538,-0.43 -1.54,-1.003 -2.902,-1.003 -2.686,0 -4.119,1.11 -5.624,3.259 l -6.949,9.887 v -12.072 c 0,-0.286 -0.251,-0.537 -0.538,-0.537 h -4.549 c -0.287,0 -0.538,0.251 -0.538,0.537 v 19.81 c -1.898,0.287 -2.758,1.469 -2.973,4.12 -0.036,0.43 0.251,0.609 0.681,0.609 C -3.224,-0.179 -1.755,0 0,0" /></g></g></g></g><g
       transform="matrix(1,0,0,-1,0,140)"
       id="g98"><g
         id="g100"><path
           id="path102"
           style="fill:#324986;fill-opacity:1;fill-rule:evenodd;stroke:none"
           d="m 148.456,97.7188 h -3 l -6.408,-8.0161 v 8.0161 h -2.208 v -16.2 h 2.208 v 7.632 l 6.432,-7.632 h 2.736 l -6.864,7.824 z" /><path
           id="path104"
           style="fill:#324986;fill-opacity:1;fill-rule:evenodd;stroke:none"
           d="m 157.576,85.5988 -0.096,2.112 c -1.296,-0.24 -2.26,0.084 -2.892,0.972 -0.632,0.888 -0.948,2.3 -0.948,4.236 v 4.8 h -2.16 V 87.4947 c -0.656,-0.112 -1.352,-0.1919 -2.088,-0.2399 v -1.296 c 1.504,-0.176 2.896,-0.232 4.176,-0.168 0,0.992 -0.088,1.936 -0.264,2.832 h 0.048 c 0.288,-0.9761 0.776,-1.7561 1.464,-2.34 0.688,-0.584 1.608,-0.812 2.76,-0.684 z" /><path
           id="path106"
           style="fill:#324986;fill-opacity:1;fill-rule:evenodd;stroke:none"
           d="m 170.584,97.5507 c -1.52,0.1761 -2.896,0.2321 -4.128,0.1681 0,-1.136 0.04,-1.928 0.12,-2.3761 h -0.048 c -0.304,0.7521 -0.816,1.372 -1.536,1.86 -0.72,0.488 -1.56,0.7321 -2.52,0.7321 -0.992,0 -1.792,-0.284 -2.4,-0.852 -0.608,-0.568 -0.912,-1.332 -0.912,-2.292 0,-1.2961 0.636,-2.316 1.908,-3.0601 1.272,-0.7439 3.028,-1.1159 5.268,-1.1159 v -0.792 c 0,-0.864 -0.2,-1.504 -0.6,-1.92 -0.4,-0.416 -1.072,-0.624 -2.016,-0.624 -1.28,0 -2.456,0.296 -3.528,0.888 l -0.36,-1.8001 c 1.408,-0.5439 2.808,-0.8159 4.2,-0.8159 1.648,0 2.804,0.3439 3.468,1.032 0.664,0.6879 0.996,1.672 0.996,2.9519 v 6.4801 c 0.656,0.112 1.352,0.192 2.088,0.24 z m -4.248,-5.112 v -0.3119 c -3.36,0 -5.04,0.7679 -5.04,2.304 0,0.528 0.164,0.96 0.492,1.296 0.328,0.3359 0.764,0.5039 1.308,0.5039 0.928,0 1.7,-0.3839 2.316,-1.152 0.616,-0.7679 0.924,-1.6479 0.924,-2.64 z" /><path
           id="path108"
           style="fill:#324986;fill-opacity:1;fill-rule:evenodd;stroke:none"
           d="m 175.36,97.7188 h -2.16 v -15.816 c -0.656,-0.112 -1.352,-0.192 -2.088,-0.24 v -1.2961 c 1.504,-0.1759 2.92,-0.2319 4.248,-0.1679 z" /><path
           id="path110"
           style="fill:#324986;fill-opacity:1;fill-rule:evenodd;stroke:none"
           d="m 191.8,97.5507 c -1.504,0.1761 -2.896,0.2321 -4.176,0.1681 0,-0.88 0.064,-1.72 0.192,-2.52 h -0.048 c -0.352,0.848 -0.892,1.5159 -1.62,2.0039 -0.728,0.488 -1.588,0.7321 -2.58,0.7321 -2.384,0 -3.576,-1.2721 -3.576,-3.8161 v -6.624 c -0.656,-0.112 -1.352,-0.1919 -2.088,-0.2399 v -1.296 c 1.568,-0.176 2.976,-0.232 4.224,-0.168 v 7.68 c 0,0.8959 0.152,1.568 0.456,2.016 0.304,0.448 0.832,0.6719 1.584,0.6719 0.976,0 1.788,-0.444 2.436,-1.332 0.648,-0.888 0.972,-1.9959 0.972,-3.3239 v -5.712 h 2.136 v 10.224 c 0.656,0.112 1.352,0.192 2.088,0.24 z" /><path
           id="path112"
           style="fill:#324986;fill-opacity:1;fill-rule:evenodd;stroke:none"
           d="m 205.192,91.1908 c 0,2.112 -0.54,3.752 -1.62,4.92 -1.08,1.168 -2.588,1.752 -4.524,1.752 -0.784,0 -1.456,-0.0481 -2.016,-0.144 v 5.9279 h -2.16 v -16.152 c -0.656,-0.112 -1.352,-0.1919 -2.088,-0.2399 v -1.296 c 1.52,-0.176 2.904,-0.232 4.152,-0.168 0,1.088 -0.056,1.8959 -0.168,2.4239 l 0.048,0.0241 c 0.336,-0.832 0.852,-1.484 1.548,-1.956 0.696,-0.472 1.516,-0.708 2.46,-0.708 1.392,0 2.468,0.484 3.228,1.452 0.76,0.9679 1.14,2.3559 1.14,4.164 z m -2.256,0.1919 c 0,-2.6879 -0.88,-4.0319 -2.64,-4.0319 -1.008,0 -1.804,0.4759 -2.388,1.428 -0.584,0.952 -0.876,2.012 -0.876,3.18 v 3.9359 c 0.624,0.1921 1.328,0.2881 2.112,0.2881 1.184,0 2.112,-0.388 2.784,-1.164 0.672,-0.7761 1.008,-1.988 1.008,-3.6361 z" /><path
           id="path114"
           style="fill:#324986;fill-opacity:1;fill-rule:evenodd;stroke:none"
           d="m 217.552,85.7908 -4.896,12.936 c -0.72,1.9039 -1.496,3.2319 -2.328,3.9839 -0.832,0.752 -1.928,1.128 -3.288,1.128 -0.416,0 -0.88,-0.048 -1.392,-0.144 l 0.24,-1.92 c 0.416,0.128 0.896,0.192 1.44,0.192 0.672,0 1.26,-0.216 1.764,-0.648 0.504,-0.432 0.964,-1.2 1.38,-2.3039 l 0.48,-1.296 -4.512,-11.928 h 2.448 l 2.256,6.192 c 0.256,0.7199 0.56,1.7039 0.912,2.952 h 0.048 c 0.208,-0.8161 0.6,-2.0401 1.176,-3.672 l 1.92,-5.472 z" /></g></g></g></svg>