<svg id="svg2" xmlns="http://www.w3.org/2000/svg" viewBox="0 0 429.38 149.62"><defs><style>.cls-1{fill:#f9a70d}.cls-2{fill:#f79210}.cls-3{fill:#304488}.cls-4{fill:#375aa7}.cls-5{fill:#4575be}.cls-6{fill:#324986;fill-rule:evenodd}</style></defs><g id="g16"><g id="g26"><path id="path28" class="cls-3" d="M66.44 65.52c.35-.79 1.47-1.31 2.42-1.31 1.35 0 1.66.77 1.57 1.35-.1.7-.71 1.17-1.54 1.3-.07.01-.15.02-.23.02-.59 0-1.19-.29-1.03-.5.08-.1.28-.37.12-.68-.12-.24-.38-.35-.67-.35-.22 0-.46.07-.65.19m16.59-8.86c-1.38 0-2.58 1-4 2.71-.39.46-.8.86-1.11.86-.19 0-.34-.16-.41-.56-.12-.67.39-2.03-.18-2.03h-.04c-1.48.16-2.45 1.01-3.29 2.11-.65.85-.7 1.3-1.45 1.32-1.5.07-2.2.13-3.36.41-1.16.27-2.14.71-2.84 1.14-.87.54-1.53 1.36-3.57 1.38-3.28.03-7.43.1-9.05.41-1.66.31-1.89 1.37-1.01 2.84 1.03 1.72 1.34 5.42 3.42 5.95.54 1.14.91 2.02 1.42 2.02h.05c.18-.04.37-.61.51-1.14.29-1.15 1.41-1.2 2.15-1.24.37-.02.72-.03 1.06-.03 1.37 0 2.5.18 3.51.75.86.49 1.29 1.35 1.12 1.69-.09.18-.21.23-.43.23-.13 0-.29-.02-.51-.04-.21-.02-.48-.04-.8-.04-.57 0-1.34.06-2.37.27-1.81.36-2.92 1.33-5.24 1.33-3.47 0-5.17-2.35-5.78-4.45-.21-.72-.38-1.4-.86-1.4-.22 0-.52.15-.91.52-1.59 1.49-1.71 4.32-.06 6.05 1.09 1.15 2.62 1.74 4.46 1.91.37.03.97.05 1.6.05.34 0 .69 0 1.01-.02 0 0-.26.72.13 1.36.28.44.93.81 1.94.81.45 0 .96-.07 1.54-.25 1.61-.48 3.09-.94 4.42-.94.9 0 1.73.21 2.48.78.34.25.76.72.76 1.02 0 .55-2.03 2.14-7.73 3.68-7.01 1.89-8.65 6.58-7.94 9.15l.39.47c.21 0 1.27-.62 1.87-.73.12-.02.23-.03.32-.03.78 0 .36.8.22 1.78-.54 3.89 4.99 8.8 9.87 12.18 2.7 1.87 4.16 2.51 4.84 2.51s2.14-.52 4.84-2.51c7.61-5.63 12.66-13.51 11.84-17.7-.47-2.38-1.71-3.83-1.11-4.22.11-.07.25-.1.39-.1.34 0 .74.16 1.1.31.37.16.7.31.88.31.04 0 .08 0 .1-.02.76-.48 1.11-4.88-.3-9.49-1.34-4.38-2.84-6.13-3.74-9.71-.12-.47-.4-1.89-.28-2.27.12-.38.42-1.14.63-1.77 1.12-3.24.6-6.64.25-7.41l-.32-.19c-.15-.02-.3-.04-.45-.04"/></g><g id="g30"><path id="path32" class="cls-4" d="M4.93 74.72c-.73 0-1.95 1.5-3.01 3.72C.68 81.05 0 83.52 0 88.2c0 11.89 9.82 24 23.9 24 .52 0 1.04-.02 1.57-.05 13.03-.82 20.43-10.69 20.43-20.74 0-4.74-2.73-10.1-8.34-10.1h-.36c-6.64.26-7.7 4.61-7.7 7.01 0 5.92 2.55 9.08 2.21 10.56-.22 1-2.65 1.49-4.73 1.49h-.22c-7.25-.12-17.91-8.89-20.8-23.99-.12-.62-.33-1.66-1.05-1.67"/></g><g id="g34"><path id="path36" class="cls-5" d="M24.3 30.49C9.42 30.49 0 41.81 0 54.41c0 3.3.92 7.56 1.93 9.96.94 2.22 1.98 4.2 2.81 4.2.95 0 1.03-1.35 1.2-2.64 1.19-8.82 6.17-15.38 11.7-18.52 4.35-2.47 8.68-3.26 12.68-3.26s7.88.83 10.98 1.53c.27.06.52.09.75.09.55 0 .98-.18 1.18-.57.23-.46.07-.97-.65-1.73-2.88-3.03-9.5-9.62-10.33-10.31-2.02-1.68-5.34-2.68-7.95-2.68"/></g><g id="g38"><path id="path40" class="cls-5" d="M85.16 0c-.72 0-1.42.03-2.08.09-4.57.39-7.07 1.47-8.78 2.26-.91.42-1.67.95-1.67 1.46 0 .46.98 1.01 1.44 1.36 1.82 1.38 3.24 2.52 7.19 6.65 3.04 3.19 6.93 8.67 8.56 12.43 1.26 2.92 1.91 9.14 1.27 15.47-.09.95 0 1.58.42 1.9.13.1.27.13.42.13.51 0 1.12-.44 1.42-.72.82-.73 7.01-6.9 9.91-10.06 1.96-2.13 2.61-5.83 2.61-9.94 0-3.45-.46-8.56-3.76-12.77C96.97 1.7 90.37 0 85.16 0"/></g><g id="g42"><path id="path44" class="cls-4" d="M53.21 0C48 0 41.4 1.7 36.26 8.27c-3.3 4.22-3.76 9.32-3.76 12.77 0 4.11.66 7.81 2.61 9.94 2.89 3.16 9.09 9.33 9.91 10.06.3.28.91.72 1.42.72.15 0 .3-.04.42-.13.42-.32.51-.95.42-1.9-.63-6.33.01-12.55 1.27-15.47 1.63-3.76 5.52-9.24 8.56-12.43 3.95-4.13 5.37-5.27 7.19-6.65.46-.35 1.44-.9 1.44-1.36 0-.51-.76-1.03-1.67-1.46C62.36 1.57 59.86.49 55.29.1c-.66-.06-1.36-.09-2.08-.09"/></g><g id="g46"><path id="path48" class="cls-1" d="M30.21 47.59c-11.22 0-20.57 7.91-21.2 22.1-.61 13.68 9.75 26.02 16.47 27.37.42.08.78.12 1.07.12 1.36 0 1.35-.89.89-2.21-.77-2.22-2.5-7.95.32-12.37 2.19-3.42 5.3-4.31 7.7-4.53.7-.06 1.63-.12 2.09-.17 1.77-.21 2.25-.72 2.25-1.92v-9.92c0-2.52.48-3.24 1.7-4.46 1.37-1.37 4.76-4.77 6.47-6.47 1.3-1.3 1-2.33.08-3.03-2.89-2.23-11.21-4.51-17.82-4.51"/></g><g id="g50"><path id="path52" class="cls-5" d="M133.44 74.72c-.72 0-.93 1.05-1.05 1.67-2.89 15.1-13.54 23.87-20.8 23.99h-.22c-2.08 0-4.51-.49-4.73-1.49-.33-1.48 2.21-4.64 2.21-10.56 0-2.4-1.06-6.75-7.7-7.01h-.36c-5.61 0-8.34 5.35-8.34 10.1 0 10.05 7.4 19.92 20.43 20.74.53.03 1.06.05 1.57.05 14.08 0 23.9-12.11 23.9-24 0-4.69-.68-7.15-1.93-9.76-1.06-2.22-2.28-3.72-3.01-3.72"/></g><g id="g54"><path id="path56" class="cls-4" d="M114.07 30.49c-2.61 0-5.93 1-7.95 2.68-.83.69-7.45 7.28-10.33 10.31-.72.76-.88 1.27-.65 1.73.2.39.62.57 1.18.57.23 0 .48-.03.75-.09 3.1-.7 6.87-1.53 10.98-1.53s8.33.79 12.68 3.26c5.53 3.14 10.5 9.7 11.69 18.52.17 1.29.25 2.64 1.2 2.64.83 0 1.87-1.98 2.81-4.2 1.01-2.4 1.94-6.66 1.94-9.96 0-12.6-9.42-23.92-24.31-23.92"/></g><g id="g58"><path id="path60" class="cls-1" d="M108.16 47.59c-6.62 0-14.94 2.28-17.82 4.51-.92.71-1.22 1.73.08 3.03l6.47 6.47c1.22 1.22 1.7 1.94 1.7 4.46v9.92c0 1.2.48 1.71 2.25 1.92.45.05 1.39.11 2.09.17 2.4.22 5.51 1.1 7.7 4.53 2.82 4.42 1.09 10.15.32 12.37-.46 1.33-.48 2.21.89 2.21.29 0 .65-.04 1.07-.12 6.72-1.35 17.07-13.68 16.47-27.37-.63-14.19-9.98-22.1-21.2-22.1"/></g><g id="g62"><path id="path64" class="cls-1" d="M90.87 108.64c-.74 0-1.45.37-2.1 1.04-2.8 2.86-4.6 4.55-7.95 7.08-1.69 1.27-1.74 2.94-.65 4.42 1.05 1.41 2.85 3.12 4.48 4.65 1.91 1.79 5.39 3.08 9.18 3.08.94 0 1.89-.08 2.84-.25 7.41-1.32 9.86-7.25 9.7-12.37-.04-1.29-.57-2.03-1.13-2.31-.4-.2-.77-.25-1.15-.25-.26 0-.53.03-.83.06-.29.03-.61.05-.96.05-.17 0-.35 0-.54-.02-3.87-.32-6.52-2.02-8.68-4.1-.76-.73-1.5-1.07-2.21-1.07"/></g><g id="g66"><path id="path68" class="cls-1" d="M47.5 108.64c-.71 0-1.45.34-2.21 1.07-2.15 2.08-4.8 3.78-8.68 4.1-.19.01-.37.02-.54.02-.36 0-.67-.03-.96-.05-.29-.03-.56-.06-.83-.06-.38 0-.75.06-1.15.25-.56.27-1.09 1.02-1.13 2.31-.16 5.12 2.29 11.05 9.7 12.37.95.17 1.91.25 2.84.25 3.78 0 7.26-1.29 9.18-3.08 1.63-1.53 3.44-3.23 4.48-4.65 1.09-1.47 1.04-3.14-.65-4.42-3.35-2.52-5.15-4.22-7.95-7.08-.66-.67-1.36-1.04-2.1-1.04"/></g><g id="g70"><path id="path72" class="cls-2" d="M69.19 6.72c-2.11 0-5.57 3.23-9.54 7.4-3.9 4.09-7.89 10.11-8.53 13.3-.64 3.18-1.5 9.84.8 19.47.65 2.73 2.16 2.99 3.87 2.99h26.8c1.71 0 3.22-.26 3.87-2.99 2.31-9.63 1.44-16.28.8-19.47-.64-3.18-4.64-9.21-8.53-13.3-3.97-4.17-7.43-7.4-9.54-7.4"/></g><g id="g74"><path id="path76" class="cls-2" d="M74.33 121.27c-.14 0-.29.01-.45.03-1.29.17-2.79 1.33-4.7 1.33s-3.41-1.17-4.7-1.33a3.64 3.64 0 0 0-.45-.03c-.85 0-1.49.37-2.35 1.23-1.45 1.45-3.54 3.73-4.93 5.43-1 1.23-2.36 3.28-.49 8.06 2.29 5.87 10.52 13.62 12.92 13.62s10.63-7.74 12.92-13.62c1.87-4.78.51-6.83-.49-8.06-1.39-1.71-3.48-3.98-4.93-5.43-.86-.86-1.5-1.23-2.35-1.23"/></g><g id="g78"><path id="path80" class="cls-3" d="M194.46 32.55c-7.49 0-8.67 2.97-8.67 4.74 0 8.52 21.72 6.08 21.72 22.39 0 10.82-9.34 16.01-21.35 16.01-10.53 0-13.2-5.19-13.2-9.79 0-.89 0-1.56.22-2.45.22-.74.74-1.11 1.78-.59 3.86 1.85 7.27 2.59 10.75 2.59 5.49 0 9.79-1.56 9.79-5.34 0-8.6-21.72-6.82-21.72-22.76 0-10.08 7.19-15.05 21.35-15.05 2.37 0 6.15.3 8.75.96.66.15.96.67.89 1.26l-1.19 7.93c-.15.89-.59.96-1.41.82-2.59-.52-5.63-.74-7.71-.74"/></g><g id="g82"><path id="path84" class="cls-3" d="M299.9 22.69c7.41 0 9.19 2.52 10.75 6.82l13.34 37.44c1.41 3.86 2.52 5.56 3.26 6.6.22.3.22.74-.07.96-.96.74-2.82 1.56-5.86 1.56-5.12 0-8.15-1.85-9.64-6.23l-1.63-4.89c-.22-.74-.59-.96-1.33-.96h-19.49c-.67 0-.96.3-1.19.96L285 73.92c-.22.59-.59 1.04-1.48 1.04h-9.86c-.89 0-1.48-.82-1.19-1.71l14.3-40.4c-3.93-.59-5.71-3.04-6.15-8.53-.07-.89.52-1.26 1.41-1.26 6.15 0 11.71-.37 17.86-.37m6.89 30.1-5.86-18.61c-.37-1.19-.89-1.7-1.85-1.7h-.96l-6.52 20.38c-.15.52.07.82.67.82h13.94c.59 0 .74-.3.59-.89"/></g><g id="g86"><path id="path88" class="cls-3" d="M330.62 24.32c-.07-.89.52-1.26 1.41-1.26 3.93-.07 7.26-.37 10.23-.37 3.63 0 6.15 2 6.15 6.15v25.94c0 6.97 3.56 10.6 9.86 10.6s9.86-3.63 9.86-10.6V24.17c0-.59.52-1.11 1.11-1.11h9.42c.59 0 1.11.52 1.11 1.11v33.06c0 11.79-7.93 18.39-21.5 18.39s-21.5-6.01-21.5-18.39V32.84c-3.93-.59-5.71-3.04-6.15-8.53"/></g><g id="g90"><path id="path92" class="cls-3" d="M415.67 34.1v24.54c0 5.49 1.19 6.82 4.3 7.27.82.15 2.22.15 3.04.07 1.11-.15 1.48.52 1.26 1.85-.59 3.63-4.08 7.86-10.16 7.86-7.19 0-10.08-3.78-10.08-13.49V34.11c0-.44-.3-.74-.74-.74h-11.86c-.59 0-1.11-.52-1.11-1.11v-8.08c0-.59.52-1.11 1.11-1.11h36.84c.59 0 1.11.52 1.11 1.11v8.08c0 .59-.52 1.11-1.11 1.11h-11.86c-.44 0-.74.3-.74.74"/></g><g id="g94"><path id="path96" class="cls-3" d="M227.92 22.69c3.48 0 6.08 2.59 6.08 6.08v17.72l16.23-21.94c.67-.96 1.71-1.48 3.11-1.48h9.12c1.33 0 2 .96 1.19 2.08l-16.68 22.02c-.22.3-.22.59 0 .89 6.67 8.6 15.57 21.2 19.05 24.46.67.59.44 1.11 0 1.48a9.668 9.668 0 0 1-6.01 2.08c-5.56 0-8.52-2.3-11.64-6.74l-14.38-20.46v24.98c0 .59-.52 1.11-1.11 1.11h-9.41c-.59 0-1.11-.52-1.11-1.11V32.85c-3.93-.59-5.71-3.04-6.15-8.53-.07-.89.52-1.26 1.41-1.26 3.63 0 6.67-.37 10.3-.37"/></g></g><path id="path102" class="cls-6" d="M197.94 128.72h-6.21l-13.26-16.59v16.59h-4.57V95.2h4.57v15.79l13.31-15.79h5.66l-14.2 16.19 14.7 17.33Z"/><path id="path104" class="cls-6" d="m216.81 103.64-.2 4.37c-2.68-.5-4.68.17-5.98 2.01s-1.96 4.76-1.96 8.77v9.93h-4.47v-21.16c-1.36-.23-2.8-.4-4.32-.5v-2.68c3.11-.36 5.99-.48 8.64-.35 0 2.05-.18 4.01-.55 5.86h.1c.6-2.02 1.61-3.63 3.03-4.84 1.42-1.21 3.33-1.68 5.71-1.42Z"/><path id="path106" class="cls-6" d="M243.73 128.37c-3.15.36-5.99.48-8.54.35 0-2.35.08-3.99.25-4.92h-.1c-.63 1.56-1.69 2.84-3.18 3.85s-3.23 1.51-5.21 1.51-3.71-.59-4.97-1.76c-1.26-1.18-1.89-2.76-1.89-4.74 0-2.68 1.32-4.79 3.95-6.33s6.27-2.31 10.9-2.31v-1.64c0-1.79-.41-3.11-1.24-3.97-.83-.86-2.22-1.29-4.17-1.29-2.65 0-5.08.61-7.3 1.84l-.74-3.72c2.91-1.13 5.81-1.69 8.69-1.69 3.41 0 5.8.71 7.18 2.14 1.37 1.42 2.06 3.46 2.06 6.11v13.41c1.36.23 2.8.4 4.32.5v2.68Zm-8.79-10.58v-.65c-6.95 0-10.43 1.59-10.43 4.77 0 1.09.34 1.99 1.02 2.68.68.7 1.58 1.04 2.71 1.04 1.92 0 3.52-.79 4.79-2.38 1.27-1.59 1.91-3.41 1.91-5.46Z"/><path id="path108" class="cls-6" d="M253.61 128.72h-4.47V95.99c-1.36-.23-2.8-.4-4.32-.5v-2.68c3.11-.36 6.04-.48 8.79-.35v36.25Z"/><path id="path110" class="cls-6" d="M287.63 128.37c-3.11.36-5.99.48-8.64.35 0-1.82.13-3.56.4-5.21h-.1c-.73 1.75-1.85 3.14-3.35 4.15s-3.29 1.51-5.34 1.51c-4.93 0-7.4-2.63-7.4-7.9v-13.71c-1.36-.23-2.8-.4-4.32-.5v-2.68c3.24-.36 6.16-.48 8.74-.35v15.89c0 1.85.31 3.24.94 4.17s1.72 1.39 3.28 1.39c2.02 0 3.7-.92 5.04-2.76 1.34-1.84 2.01-4.13 2.01-6.88v-11.82h4.42v21.16c1.36.23 2.8.4 4.32.5v2.68Z"/><path id="path112" class="cls-6" d="M315.34 115.21c0 4.37-1.12 7.76-3.35 10.18s-5.36 3.63-9.36 3.63c-1.62 0-3.01-.1-4.17-.3v12.27h-4.47v-33.42c-1.36-.23-2.8-.4-4.32-.5v-2.68c3.15-.36 6.01-.48 8.59-.35 0 2.25-.12 3.92-.35 5.02l.1.05c.7-1.72 1.76-3.07 3.2-4.05s3.14-1.47 5.09-1.47c2.88 0 5.11 1 6.68 3 1.57 2 2.36 4.88 2.36 8.62Zm-4.67.4c0-5.56-1.82-8.34-5.46-8.34-2.09 0-3.73.98-4.94 2.95-1.21 1.97-1.81 4.16-1.81 6.58v8.14c1.29.4 2.75.6 4.37.6 2.45 0 4.37-.8 5.76-2.41 1.39-1.61 2.09-4.11 2.09-7.52Z"/><path id="path114" class="cls-6" d="m340.92 104.03-10.13 26.77c-1.49 3.94-3.1 6.69-4.82 8.24s-3.99 2.33-6.8 2.33c-.86 0-1.82-.1-2.88-.3l.5-3.97c.86.26 1.85.4 2.98.4 1.39 0 2.61-.45 3.65-1.34 1.04-.89 1.99-2.48 2.86-4.77l.99-2.68-9.34-24.68H323l4.67 12.81c.53 1.49 1.16 3.53 1.89 6.11h.1c.43-1.69 1.24-4.22 2.43-7.6l3.97-11.32h4.87Z"/></svg>