<svg width="54.19" height="51.874" preserveAspectRatio="none" viewBox="0 0 14.338 13.725" xmlns="http://www.w3.org/2000/svg"><path d="M12.356.628c-1.276-.098-2.164.514-3.268.532C6.984 1.195 4.6-.783 2.827.351c-.829.531-.21 2.099-.882 2.818C.572 4.639-.123 7.405.018 10.005c.054.987-.118 2.274.652 2.891 1.541 1.235 3.974-.295 5.924.014.822.13 1.546.707 2.377.766 1.421.1 3.072.125 4.213-.73.425-.318.556-.92.702-1.432.39-1.374.522-2.839.418-4.262-.058-.775-.52-1.486-.565-2.261-.034-.599.362-1.198.234-1.783-.216-.992-.61-2.7-1.617-2.58 0 0 .677.052 0 0z" fill-rule="evenodd"/></svg>