<svg width="28.595" height="24.927" preserveAspectRatio="none" viewBox="0 0 7.566 6.595" xmlns="http://www.w3.org/2000/svg"><path d="M7.032 6.134c-.5.305-1.184.221-1.762.371a4.64 4.64 0 0 1-2.126-.07c-.956-.198-1.947-.489-2.572-1.102C.164 4.98-.072 4.509.02 4.039c.057-.622.272-1.236.203-1.864-.002-.454.726-.514 1.199-.873.526-.333.536-.786 1.17-.915C3.18.315 3.59.257 4.146.08c.445-.108 1.012-.147 1.347.153.355.303.63.655.95.98.28.405.156.931.587 1.285.42.44.38 1.008.49 1.521.096.568.025 1.142-.073 1.706-.065.224-.204.545-.578.525l-.055.006-.051.01"/></svg>