<svg width="55.693" height="56.306" preserveAspectRatio="none" viewBox="0 0 14.736 14.897" xmlns="http://www.w3.org/2000/svg"><path d="M10.245.484C7.463-.468 3.679-.067 1.574 2.138.797 2.989.32 4.067.12 5.194s-.125 2.28.05 3.408c.2 1.152.526 2.33 1.203 3.282.125.175.226.326.351.476.652.727 1.479 1.278 2.356 1.679 1.077.476 2.23.701 3.408.802 1.303.125 2.682.075 3.885-.502 1.128-.526 1.813-2.155 2.364-3.258.577-1.102.903-2.787.978-4.04.1-1.93-.134-2.874-1.337-4.402-.802-1.002-1.93-1.73-3.133-2.155z" fill-rule="evenodd"/></svg>