<svg width="58.019" height="58.334" preserveAspectRatio="none" viewBox="0 0 15.351 15.434" xmlns="http://www.w3.org/2000/svg"><path d="M.963 12.105c-.013.65-.923 1.346-.544 1.876 1.776 2.485 6.196 1.194 9.154.431 1.342-.345 2.64-1.125 3.541-2.178 1.255-1.466 2.306-3.411 2.235-5.34-.03-.81-.643-1.502-1.103-2.17-.51-.739-1.188-1.345-1.808-1.994-.553-.577-.979-1.353-1.705-1.688C8.467-.003 5.646-.354 3.273.417c-.655.213-1.288.992-1.564 1.35C.73 3.226-.76 3.778.46 6.888c.328.835-.214 1.796-.126 2.69.086.864.646 1.66.629 2.528z" fill-rule="evenodd"/></svg>