<svg width="305.33" height="22.691" preserveAspectRatio="none" viewBox="0 0 80.784 6.004" xmlns="http://www.w3.org/2000/svg"><path d="M33.87 5.655c10.782-.077 21.562.284 32.344.327 2.682.011 5.364.035 8.046-.017 2.066-.093 4.234-.042 5.923-.25.3-.076.488-.876.499-1.144.135-1.395.233-2.63-.363-3.509-.218-.323-.978-.428-1.215-.462-1.017-.148-3.342-.222-4.372-.212-15.576-.364-29.482-.41-45.345-.3-8.99.072-16.842.12-24.99-.094C3.357.027 1.38.108.842.19c-.58.09-.705.534-.763.861C-.12 2.15.107 4.155.23 4.688c.096.417.336.745 1.021.81 10.195.153 22.49.219 32.618.157z" fill-rule="evenodd"/></svg>