<svg width="1e3" height="1e3" version="1.1" viewBox="-43 0 1178 1178" xmlns="http://www.w3.org/2000/svg">
 <defs>
  <clipPath id="clipPath66">
   <path d="m0 1e3h1e3v-1e3h-1e3z"/>
  </clipPath>
 </defs>
 <g transform="matrix(1.3333,0,0,-1.3333,-122.66,1254.8)">
  <g clip-path="url(#clipPath66)">
   <g transform="translate(790.38,378.7)">
    <path d="m0 0c4.9 14.703 6.126 28.18 6.126 37.982 0 36.757-25.73 67.388-62.487 67.388-67.387 0-123.75-58.811-123.75-129.88 0-50.235 41.658-74.739 88.216-74.739h15.928c11.027 0 13.479-9.802 13.479-19.604 0-31.856-19.605-73.514-77.191-73.514-67.387 0-80.866 60.036-93.118 60.036-11.027 0-4.9-19.603 13.479-55.135 3.674-7.351 8.576-12.252 8.576-24.505 0-45.333-63.713-107.82-79.641-107.82s-79.64 62.487-79.64 107.82c0 12.253 4.901 17.154 8.577 24.505 18.378 35.532 24.505 55.135 13.477 55.135-12.252 0-25.73-60.036-93.117-60.036-57.586 0-77.19 41.658-77.19 73.514 0 9.802 2.45 19.604 13.477 19.604h15.928c46.558 0 88.217 24.504 88.217 74.739 0 71.064-56.361 129.88-123.75 129.88-36.758 0-62.488-30.631-62.488-67.388 0-9.802 1.226-23.279 6.126-37.982 4.901-15.928-7.351-22.055-24.504-13.478-50.234 23.28-93.119 98.019-93.119 164.18 0 98.019 62.489 153.15 137.23 153.15 78.416 0 122.52-51.46 136-67.388 13.476-13.477 25.729-40.432 39.207-40.432 7.351 0 11.027 7.351 11.027 18.378 0 55.136-62.486 151.93-28.18 226.67 20.829 44.109 86.991 121.3 112.72 121.3 25.731 0 91.893-77.19 112.72-121.3 34.306-74.739-28.181-165.41-28.181-226.67 0-11.027 3.676-18.378 11.028-18.378 13.477 0 25.73 26.955 39.207 40.432 13.478 15.928 57.585 67.388 136 67.388 74.739 0 137.23-55.135 137.23-153.15 0-75.965-50.235-144.58-93.119-164.18-17.152-8.577-29.404-2.45-24.504 13.478"/>
   </g>
  </g>
 </g>
</svg>
