<svg width="46" height="46" fill="none" xmlns="http://www.w3.org/2000/svg"><path d="M5.903 24.517c-4.147 0-4.37-3.84-4.37-4.584" stroke="#000" stroke-width="2" stroke-miterlimit="10" stroke-linecap="round" stroke-linejoin="round"/><path d="M39.344 23.784c-.643-.415-1.13-1.05-1.299-1.794a11.6 11.6 0 0 0-.856-2.443 3.008 3.008 0 0 1-.036-2.48l2.714-6.334c-3.22 0-5.623.811-7.331 1.753a2.96 2.96 0 0 1-2.69.073c-2.467-1.16-5.328-1.826-8.38-1.826-9.314 0-16.866 6.178-16.866 13.8 0 3.05 1.224 5.86 3.27 8.142l3.438 8.021c.532 1.24 1.69 2.176 3.04 2.233a3.383 3.383 0 0 0 3.5-3.86l-.015-.107a.734.734 0 0 1 .83-.83 20 20 0 0 0 2.804.201c.956 0 1.893-.072 2.804-.2.503-.071.894.35.825.853-.207 1.53.567 3.095 1.996 3.678 1.828.746 3.745-.136 4.452-1.784l1.987-4.635a3.07 3.07 0 0 1 2.128-1.78l3.274-.758 1.693-9.097-1.282-.826Z" fill="#000"/><path d="M41.19 29.33c-.472 2.537-1.592 4.508-2.498 4.4-.906-.107-1.257-2.254-.785-4.791.472-2.538 1.592-4.508 2.498-4.401.906.107 1.257 2.252.785 4.792ZM21.467 7.667c1.568 0 3.088.17 4.554.461.01-.155.046-.303.046-.461a6.134 6.134 0 1 0-12.135 1.26 22.96 22.96 0 0 1 7.535-1.26Z" fill="#000"/></svg>