<svg width="1176.2" height="1176.2" version="1.1" viewBox="-219 0 1176.2 1176.2" xmlns="http://www.w3.org/2000/svg">
 <defs>
  <clipPath id="clipPath554">
   <path d="m0 1e3h1e3v-1e3h-1e3z"/>
  </clipPath>
 </defs>
 <g transform="matrix(1.3333,0,0,-1.3333,-292.51,1254.8)">
  <g clip-path="url(#clipPath554)">
   <g transform="translate(773.33,223.78)">
    <path d="m0 0c-62.934 97.162-70.263 124.74-242.91 426.68-9.955 17.412-10.035 38.819-0.161 56.264 19.233 33.972 85.532 158.74 85.532 158.74s4.785 8.989-0.725 15.802c0 0 5.51-6.813 0 0 0 0-5.492 6.83-10.647-1.948l-85.017-145.07s-5.138-8.78-5.364 1.401l-4.333 195.26s-0.226 10.18-8.36 10.164c0 0 8.134 0.016 0 0 0 0-8.118-0.016-8.311-10.196l-3.512-195.16s-0.177-10.18-5.445-1.465l-86.386 142.67s-5.283 8.713-10.953 3.334c0 0 5.67 5.379 0 0 0 0-5.686-5.38-0.773-14.304l85.484-155.31c11.018-18.75 11.179-42.009 0.403-60.903-60.888-106.59-206.82-362.68-248.24-435.35-6.782-11.904-5.348-26.948 3.882-37.064 141.22-154.91 395.32-157.79 540.8-8.827 14.433 14.787 16.269 37.901 5.026 55.282m-255.88-60.192c-5.23-15.651-13.681-40.915-18.677-55.899-2.475-7.388-9.4-12.186-16.996-11.773-76.697 4.274-151.96 33.351-210.2 86.818-10.957 10.058-13.572 26.678-6.226 39.771 8.934 15.921 22.319 39.787 38.396 68.434 1.121 1.971 3.082 3.274 5.292 3.481 2.21 0.206 4.373-0.7 5.82-2.432 32.28-38.96 91.173-89.059 193.46-111.76 3.471-0.762 6.444-3.018 8.187-6.196s2.101-6.991 0.95-10.439m32.108 95.938-10.942-32.668c-1.992-5.942-7.86-9.485-13.883-8.39-81.009 14.81-141.15 49.416-189.21 107.92-4.233 5.164-4.871 12.505-1.587 18.352 5.431 9.692 14.022 24.994 21.042 37.515 1.105 1.954 3.082 3.193 5.26 3.304 2.179 0.112 4.265-0.921 5.541-2.732 29.073-41.519 98.114-90.855 174.48-106.62 3.502-0.716 6.537-2.972 8.311-6.165 1.79-3.195 2.148-7.024 0.981-10.52m9.447 49.575c-85.741 15.81-139.06 60.443-175.4 103.95-4.062 4.878-4.701 11.853-1.572 17.43 39.065 69.658 79.001 140.89 106.95 190.81 2.506 4.449 7.113 7.197 12.109 7.197 5.012 0 9.603-2.765 12.093-7.23 37.369-66.845 103.38-184.5 121.65-217.09 3.207-5.704 3.751-12.616 1.479-18.782-11.782-31.826-33.447-54.896-64.527-73.9-3.845-2.351-8.374-3.193-12.778-2.383m74.394-64.971c-1.898-1.78-4.389-2.685-6.941-2.542-2.553 0.142-4.949 1.335-6.646 3.304l-20.326 23.723c-2.303 2.686-3.408 6.213-3.05 9.772 0.357 3.543 2.148 6.769 4.918 8.914 28.901 22.229 46.737 45.205 53.585 65.321 0.607 1.747 2.148 2.986 3.938 3.161 1.806 0.175 3.549-0.746 4.452-2.352 5.058-9.024 9.991-17.811 14.785-26.343 2.568-4.577 3.3-9.995 2.023-15.112-5.385-21.513-23.05-45.728-46.738-67.846m105.34-54.071c-9.805-9.629-20.109-18.527-30.848-26.677-6.381-4.847-15.283-3.831-20.481 2.335-8.561 10.137-21.354 25.153-29.385 34.575-4.187 4.91-4.093 12.298 0.234 17.096 20.123 22.293 33.166 38.818 39.345 54.485 0.887 2.256 2.942 3.797 5.307 3.971 2.365 0.16 4.607-1.064 5.805-3.177 14.708-26.169 26.319-46.841 33.26-59.171 4.311-7.643 2.973-17.352-3.237-23.437"/>
   </g>
  </g>
 </g>
</svg>
