<svg width="58" height="42" fill="none" xmlns="http://www.w3.org/2000/svg"><path d="M55.043.11H2.957A2.277 2.277 0 0 0 .68 2.389v.906H3.25V37.03a1.1 1.1 0 0 0 1.099 1.1v2.299A1.47 1.47 0 0 0 5.823 41.9h1.79a1.47 1.47 0 0 0 1.472-1.472v-2.3h39.819v2.3a1.47 1.47 0 0 0 1.472 1.472h1.79a1.47 1.47 0 0 0 1.473-1.472v-2.3a1.1 1.1 0 0 0 1.098-1.099V3.294h2.583v-.906A2.277 2.277 0 0 0 55.043.11ZM27.97 31.208H5.687V4.677h22.282v26.53Zm24.344 0H30.031V4.677h22.282v26.53Z" fill="#000"/><path d="M26.723 5.922H6.933V29.95h19.79V5.922Zm-2.198 12.36a.3.3 0 0 1-.294.294h-1.088a.3.3 0 0 1-.294-.295v-2.413a.3.3 0 0 1 .294-.294h1.088a.3.3 0 0 1 .294.294v2.413ZM51.067 5.922h-19.79V29.95h19.79V5.922ZM35.14 18.282a.3.3 0 0 1-.295.294h-1.087a.3.3 0 0 1-.295-.295v-2.413a.3.3 0 0 1 .295-.294h1.087a.3.3 0 0 1 .295.294v2.413Z" fill="#000"/></svg>