<svg width="46" height="46" fill="none" xmlns="http://www.w3.org/2000/svg"><path d="M46 46s0-3.163-.264-4.816c-.215-1.305-2.024-3.03-9.715-5.857-7.57-2.78-7.103-1.426-7.103-6.541 0-3.318 1.689-1.39 2.767-7.69.42-2.48.755-.827 1.665-4.804.48-2.085-.323-2.24-.228-3.235.096-.994.192-1.88.372-3.917C33.709 6.624 31.374 0 23 0c-8.373 0-10.71 6.624-10.482 9.152.18 2.025.276 2.923.372 3.917.095.994-.707 1.15-.228 3.235.91 3.965 1.246 2.312 1.665 4.803 1.078 6.301 2.767 4.373 2.767 7.69 0 5.128.467 3.774-7.103 6.542C2.3 38.154.479 39.89.276 41.196 0 42.838 0 46 0 46h46Z" fill="#000"/></svg>