<svg width="119.36" height="101.53" preserveAspectRatio="none" version="1.1" viewBox="0 0 31.583 26.865" xmlns="http://www.w3.org/2000/svg"><path d="m1.1322 22.731c.91597 1.9397 2.601 3.8777 4.9188 3.8791 4.7087.51058 9.4487.01412 14.17.23972 2.8504.01381 5.7619.12914 8.5405-.60671 1.8657-.90789 2.2133-3.2195 2.4936-5.0705.48312-4.0238.0033-8.0842.31942-12.118.0399-2.6031.02778-5.5657-1.7958-7.6282-1.4939-1.2899-3.6146-1.0762-5.4499-1.2825-5.2396-.19829-10.486-.13946-15.728-.12339-2.0181.083557-4.1843.021146-6.0215.95755-1.9298 1.431-2.3094 4.0341-2.5128 6.2662-.18683 4.0627.052212 8.1358.3529 12.188.11332 1.12.30284 2.2493.7133 3.299z" fill-rule="evenodd"/></svg>
